<svg width="157" height="138" viewBox="74 48 157 138" version="1.1" xmlns="http://www.w3.org/2000/svg" xmlns:c2pa="http://c2pa.org/manifest"><metadata><c2pa:manifest>AAAWgmp1bWIAAAAeanVtZGMycGEAEQAQgAAAqgA4m3EDYzJwYQAAABZcanVtYgAAAEdqdW1kYzJtYQARABCAAACqADibcQN1cm46YzJwYTpmZDJkYzA1YS1iMDlmLTRkM2YtOTFkYi0yZjc4Y2M4Mjc5ZGUAAAADl2p1bWIAAAApanVtZGMyYXMAEQAQgAAAqgA4m3EDYzJwYS5hc3NlcnRpb25zAAAAALxqdW1iAAAARGp1bWRjYm9yABEAEIAAAKoAOJtxE2MycGEuaW5ncmVkaWVudC52MwAAAAAYYzJzaKpXw/tbw1jU5bxKb4Pe+AEAAABwY2JvcqNpZGM6Zm9ybWF0bWltYWdlL3N2Zyt4bWxqaW5zdGFuY2VJRHgseG1wOmlpZDowZTdlZTk3YS0yZTYzLTRhZDYtYTMzZS0zNzkzOWNmN2Q2NmNscmVsYXRpb25zaGlwaHBhcmVudE9mAAAB4mp1bWIAAABBanVtZGNib3IAEQAQgAAAqgA4m3ETYzJwYS5hY3Rpb25zLnYyAAAAABhjMnNojA25HSzvKeJaIKEiiWMLGQAAAZljYm9yomdhY3Rpb25zgqJmYWN0aW9ua2MycGEub3BlbmVkanBhcmFtZXRlcnOha2luZ3JlZGllbnRzgaJjdXJseC1zZWxmI2p1bWJmPWMycGEuYXNzZXJ0aW9ucy9jMnBhLmluZ3JlZGllbnQudjNkaGFzaFgguB+aCguij72sdop+mTllLteZtl5v8OdOQq2nvsWhKAmkZmFjdGlvbngdY29tLmFudGhyb3BpYy5jbGF1ZGUucHJvdmlkZWRqcGFyYW1ldGVyc6F4H2NvbS5hbnRocm9waWMub3JpZ2luLWNvbmZpZGVuY2VndW5rbm93bmtkZXNjcmlwdGlvbnhmQ2xhdWRlIHByb3ZpZGVkIHRoaXMgZmlsZSBhdCB0aGUgcmVxdWVzdCBvZiBhIHVzZXIgYW5kIG1heSBoYXZlIGNyZWF0ZWQgb3IgbW9kaWZpZWQgdGhlIGZpbGUgY29udGVudHMubXNvZnR3YXJlQWdlbnShZG5hbWVmQ2xhdWRlcmFsbEFjdGlvbnNJbmNsdWRlZPUAAADIanVtYgAAAEBqdW1kY2JvcgARABCAAACqADibcRNjMnBhLmhhc2guZGF0YQAAAAAYYzJzaCvaeyUApt4riCNZCTi8FR0AAACAY2JvcqVjYWxnZnNoYTI1NmNwYWRNAAAAAAAAAAAAAAAAAGRoYXNoWCDHk1jAKQt6HD75s0mFw2NMSGnz30ADILdUEZwLr4GNDWRuYW1lbmp1bWJmIG1hbmlmZXN0amV4Y2x1c2lvbnOBomVzdGFydBimZmxlbmd0aBkeBAAAAj5qdW1iAAAAJ2p1bWRjMmNsABEAEIAAAKoAOJtxA2MycGEuY2xhaW0udjIAAAACD2Nib3KlY2FsZ2ZzaGEyNTZpc2lnbmF0dXJleE1zZWxmI2p1bWJmPS9jMnBhL3VybjpjMnBhOmZkMmRjMDVhLWIwOWYtNGQzZi05MWRiLTJmNzhjYzgyNzlkZS9jMnBhLnNpZ25hdHVyZWppbnN0YW5jZUlEeCx4bXA6aWlkOjIyNjRhOTBmLTA5OTQtNDc3Ny1iNjRiLTVlMDk3YWVkMGNiMHJjcmVhdGVkX2Fzc2VydGlvbnODomN1cmx4LXNlbGYjanVtYmY9YzJwYS5hc3NlcnRpb25zL2MycGEuaW5ncmVkaWVudC52M2RoYXNoWCC4H5oKC6KPvax2in6ZOWUu15m2Xm/w505Crae+xaEoCaJjdXJseCpzZWxmI2p1bWJmPWMycGEuYXNzZXJ0aW9ucy9jMnBhLmFjdGlvbnMudjJkaGFzaFggmRkjrCwR4Pi2uh/bw2PweFjYDfVHcip8Cd/AAgr/onmiY3VybHgpc2VsZiNqdW1iZj1jMnBhLmFzc2VydGlvbnMvYzJwYS5oYXNoLmRhdGFkaGFzaFgg6aR4magvcubWk3r94Zu6gaxGKqDJP9PAUnnH65YVDOJ0Y2xhaW1fZ2VuZXJhdG9yX2luZm+jZG5hbWVvQW50aHJvcGljIEZpbGVzZ3ZlcnNpb25lMS4wLjBrc3BlY1ZlcnNpb25lMi40LjAAABA4anVtYgAAAChqdW1kYzJjcwARABCAAACqADibcQNjMnBhLnNpZ25hdHVyZQAAABAIY2JvctKEWQISogEmGCFZAgowggIGMIIBjaADAgECAhRA5aAK7sI50L64g/oGQgU9Z1UTADAKBggqhkjOPQQDAzBJMRcwFQYDVQQKEw5BbnRocm9waWMsIFBCQzEuMCwGA1UEAxMlQW50aHJvcGljIENvbnRlbnQgQ3JlZGVudGlhbHMgUm9vdCBDQTAeFw0yNjA4MDcxODQzNTZaFw0yODA4MDYxOTQzNTZaMEQxFzAVBgNVBAoTDkFudGhyb3BpYywgUEJDMSkwJwYDVQQDEyBBbnRocm9waWMgQ2xhdWRlIENvbnRlbnQgU2lnbmluZzBZMBMGByqGSM49AgEGCCqGSM49AwEHA0IABJh6CmvLUBgFFNU0vUKlOVtE6djd17L5SuwX0LemFisBM3dkd/3cyjxFA3Qo5S46fX0/ihY0VZ7mfb9KF703t5OjWDBWMA4GA1UdDwEB/wQEAwIHgDAVBgNVHSUEDjAMBgorBgEEAYPoXgIBMAwGA1UdEwEB/wQCMAAwHwYDVR0jBBgwFoAUzlHiBIFOZFsj+OPEz5o+nMHXXMIwCgYIKoZIzj0EAwMDZwAwZAIwMXMdFJ4BetLLVY7ORuE9noqbbAZOZn/aArXyTwFAZfKrPzxF2vPoJNf1+UCdg1XGAjBwX1zd9WGqYkqmL5SFqw1QySjr1zJfpJM9+1rdDwSPLMOPOjKuiXjoU/pUUeG9RwmhY3BhZFkNngAAAAAAAAAAAAAAAAAAAAAAAAAAAAAAAAAAAAAAAAAAAAAAAAAAAAAAAAAAAAAAAAAAAAAAAAAAAAAAAAAAAAAAAAAAAAAAAAAAAAAAAAAAAAAAAAAAAAAAAAAAAAAAAAAAAAAAAAAAAAAAAAAAAAAAAAAAAAAAAAAAAAAAAAAAAAAAAAAAAAAAAAAAAAAAAAAAAAAAAAAAAAAAAAAAAAAAAAAAAAAAAAAAAAAAAAAAAAAAAAAAAAAAAAAAAAAAAAAAAAAAAAAAAAAAAAAAAAAAAAAAAAAAAAAAAAAAAAAAAAAAAAAAAAAAAAAAAAAAAAAAAAAAAAAAAAAAAAAAAAAAAAAAAAAAAAAAAAAAAAAAAAAAAAAAAAAAAAAAAAAAAAAAAAAAAAAAAAAAAAAAAAAAAAAAAAAAAAAAAAAAAAAAAAAAAAAAAAAAAAAAAAAAAAAAAAAAAAAAAAAAAAAAAAAAAAAAAAAAAAAAAAAAAAAAAAAAAAAAAAAAAAAAAAAAAAAAAAAAAAAAAAAAAAAAAAAAAAAAAAAAAAAAAAAAAAAAAAAAAAAAAAAAAAAAAAAAAAAAAAAAAAAAAAAAAAAAAAAAAAAAAAAAAAAAAAAAAAAAAAAAAAAAAAAAAAAAAAAAAAAAAAAAAAAAAAAAAAAAAAAAAAAAAAAAAAAAAAAAAAAAAAAAAAAAAAAAAAAAAAAAAAAAAAAAAAAAAAAAAAAAAAAAAAAAAAAAAAAAAAAAAAAAAAAAAAAAAAAAAAAAAAAAAAAAAAAAAAAAAAAAAAAAAAAAAAAAAAAAAAAAAAAAAAAAAAAAAAAAAAAAAAAAAAAAAAAAAAAAAAAAAAAAAAAAAAAAAAAAAAAAAAAAAAAAAAAAAAAAAAAAAAAAAAAAAAAAAAAAAAAAAAAAAAAAAAAAAAAAAAAAAAAAAAAAAAAAAAAAAAAAAAAAAAAAAAAAAAAAAAAAAAAAAAAAAAAAAAAAAAAAAAAAAAAAAAAAAAAAAAAAAAAAAAAAAAAAAAAAAAAAAAAAAAAAAAAAAAAAAAAAAAAAAAAAAAAAAAAAAAAAAAAAAAAAAAAAAAAAAAAAAAAAAAAAAAAAAAAAAAAAAAAAAAAAAAAAAAAAAAAAAAAAAAAAAAAAAAAAAAAAAAAAAAAAAAAAAAAAAAAAAAAAAAAAAAAAAAAAAAAAAAAAAAAAAAAAAAAAAAAAAAAAAAAAAAAAAAAAAAAAAAAAAAAAAAAAAAAAAAAAAAAAAAAAAAAAAAAAAAAAAAAAAAAAAAAAAAAAAAAAAAAAAAAAAAAAAAAAAAAAAAAAAAAAAAAAAAAAAAAAAAAAAAAAAAAAAAAAAAAAAAAAAAAAAAAAAAAAAAAAAAAAAAAAAAAAAAAAAAAAAAAAAAAAAAAAAAAAAAAAAAAAAAAAAAAAAAAAAAAAAAAAAAAAAAAAAAAAAAAAAAAAAAAAAAAAAAAAAAAAAAAAAAAAAAAAAAAAAAAAAAAAAAAAAAAAAAAAAAAAAAAAAAAAAAAAAAAAAAAAAAAAAAAAAAAAAAAAAAAAAAAAAAAAAAAAAAAAAAAAAAAAAAAAAAAAAAAAAAAAAAAAAAAAAAAAAAAAAAAAAAAAAAAAAAAAAAAAAAAAAAAAAAAAAAAAAAAAAAAAAAAAAAAAAAAAAAAAAAAAAAAAAAAAAAAAAAAAAAAAAAAAAAAAAAAAAAAAAAAAAAAAAAAAAAAAAAAAAAAAAAAAAAAAAAAAAAAAAAAAAAAAAAAAAAAAAAAAAAAAAAAAAAAAAAAAAAAAAAAAAAAAAAAAAAAAAAAAAAAAAAAAAAAAAAAAAAAAAAAAAAAAAAAAAAAAAAAAAAAAAAAAAAAAAAAAAAAAAAAAAAAAAAAAAAAAAAAAAAAAAAAAAAAAAAAAAAAAAAAAAAAAAAAAAAAAAAAAAAAAAAAAAAAAAAAAAAAAAAAAAAAAAAAAAAAAAAAAAAAAAAAAAAAAAAAAAAAAAAAAAAAAAAAAAAAAAAAAAAAAAAAAAAAAAAAAAAAAAAAAAAAAAAAAAAAAAAAAAAAAAAAAAAAAAAAAAAAAAAAAAAAAAAAAAAAAAAAAAAAAAAAAAAAAAAAAAAAAAAAAAAAAAAAAAAAAAAAAAAAAAAAAAAAAAAAAAAAAAAAAAAAAAAAAAAAAAAAAAAAAAAAAAAAAAAAAAAAAAAAAAAAAAAAAAAAAAAAAAAAAAAAAAAAAAAAAAAAAAAAAAAAAAAAAAAAAAAAAAAAAAAAAAAAAAAAAAAAAAAAAAAAAAAAAAAAAAAAAAAAAAAAAAAAAAAAAAAAAAAAAAAAAAAAAAAAAAAAAAAAAAAAAAAAAAAAAAAAAAAAAAAAAAAAAAAAAAAAAAAAAAAAAAAAAAAAAAAAAAAAAAAAAAAAAAAAAAAAAAAAAAAAAAAAAAAAAAAAAAAAAAAAAAAAAAAAAAAAAAAAAAAAAAAAAAAAAAAAAAAAAAAAAAAAAAAAAAAAAAAAAAAAAAAAAAAAAAAAAAAAAAAAAAAAAAAAAAAAAAAAAAAAAAAAAAAAAAAAAAAAAAAAAAAAAAAAAAAAAAAAAAAAAAAAAAAAAAAAAAAAAAAAAAAAAAAAAAAAAAAAAAAAAAAAAAAAAAAAAAAAAAAAAAAAAAAAAAAAAAAAAAAAAAAAAAAAAAAAAAAAAAAAAAAAAAAAAAAAAAAAAAAAAAAAAAAAAAAAAAAAAAAAAAAAAAAAAAAAAAAAAAAAAAAAAAAAAAAAAAAAAAAAAAAAAAAAAAAAAAAAAAAAAAAAAAAAAAAAAAAAAAAAAAAAAAAAAAAAAAAAAAAAAAAAAAAAAAAAAAAAAAAAAAAAAAAAAAAAAAAAAAAAAAAAAAAAAAAAAAAAAAAAAAAAAAAAAAAAAAAAAAAAAAAAAAAAAAAAAAAAAAAAAAAAAAAAAAAAAAAAAAAAAAAAAAAAAAAAAAAAAAAAAAAAAAAAAAAAAAAAAAAAAAAAAAAAAAAAAAAAAAAAAAAAAAAAAAAAAAAAAAAAAAAAAAAAAAAAAAAAAAAAAAAAAAAAAAAAAAAAAAAAAAAAAAAAAAAAAAAAAAAAAAAAAAAAAAAAAAAAAAAAAAAAAAAAAAAAAAAAAAAAAAAAAAAAAAAAAAAAAAAAAAAAAAAAAAAAAAAAAAAAAAAAAAAAAAAAAAAAAAAAAAAAAAAAAAAAAAAAAAAAAAAAAAAAAAAAAAAAAAAAAAAAAAAAAAAAAAAAAAAAAAAAAAAAAAAAAAAAAAAAAAAAAAAAAAAAAAAAAAAAAAAAAAAAAAAAAAAAAAAAAAAAAAAAAAAAAAAAAAAAAAAAAAAAAAAAAAAAAAAAAAAAAAAAAAAAAAAAAAAAAAAAAAAAAAAAAAAAAAAAAAAAAAAAAAAAAAAAAAAAAAAAAAAAAAAAAAAAAAAAAAAAAAAAAAAAAAAAAAAAAAAAAAAAAAAAAAAAAAAAAAAAAAAAAAAAAAAAAAAAAAAAAAAAAAAAAAAAAAAAAAAAAAAAAAAAAAAAAAAAAAAAAAAAAAAAAAAAAAAAAAAAAAAAAAAAAAAAAAAAAAAAAAAAAAAAAAAAAAAAAAAAAAAAAAAAAAAAAAAAAAAAAAAAAAAAAAAAAAAAAAAAAAAAAAAAAAAAAAAAAAAAAAAAAAAAAAAAAAAAAAAAAAAAAAAAAAAAAAAAAAAAAAAAAAAAAAAAAAAAAAAAAAAAAAAAAAAAAAAAAAAAAAAAAAAAAAAAAAAAAAAAAAAAAAAAAAAAAAAAAAAAAAAAAAAAAAAAAAAAAAAAAAAAAAAAAAAAAAAAAAAAAAAAAAAAAAAAAAAAAAAAAAAAAAAAAAAAAAAAAAAAAAAAAAAAAAAAAAAAAAAAAAAAAAAAAAAAAAAAAAAAAAAAAAAAAAAAAAAAAAAAAAAAAAAAAAAAAAAAAAAAAAAAAAAAAAAAAAAAAAAAAAAAAAAAAAAAAAAAAAAAAAAAAAAAAAAAAAAAAAAAAAAAAAAAAAAAAAAAAAAAAAAAAAAAAAAAAAAAAAAAAAAAAAAAAAAAAAAAAAAAAAAAAAAAAAAAAAAAAAAAAAAAAAAAAAAAAAAAAAAAAAAAAAAAAAAAAAAAAAAAAAAAAAAAAAAAAAAAAAAAAAAAAAAAAAAAAAAAAAAAAAAAAAAAAAAAAAAAAAAAAAAAAAAAAAAAAAAAAAAAAAAAAAAAAAAAAAAAAAAAAAAAAAAAAAAAAAAAAAAAAAAAAAAAAAAAAAAAAAAAAAAAAAAAAAAAAAAAAAAAAAAAAAAAAAAAAAAAAAAAAAAAAAAAAAAAAAAAAAAAAAAAAAAAAAAAAAAAAAAAAAAAAAAAAAAAAAAAAAAAAAAAAAAAAAAAAAAAAAAAAAAAAAAAAAAAAAAAAAAAAAAAAAAAAAAAAAAAAAAAAAAAAAAAAAAAAAAAAAAAAAAAAAAAAAAAAAAAAAAAAAAAAAAAAAAAAAAAAAAAAAAAAAAAAAAAAAAAAAAAAAAAAAAAAAAAAAAAAAAAAAAAAAAAAAAAAAAAAAAAAAAAAAAAAAAAAAAAAAAAAAAAAAAAAAAAAAAAAAAAAAAAAAAAAAAAAAAAAAAAAAAAAAAAAAAAAAAAAAAAAAAAAAAAAAAAAAAAAAAAAAAAAAAAAAAAAAAAAAAAAAAAAAAAAAAAAAAAAAPZYQMCBN84QGghdOe2o5R3uR9hCJ7kZ3YXMI8M61hLhSui1wHRrl/7/jDYWgBKgwbJEP53HiveRnBAk06u2lRlCdT4=</c2pa:manifest></metadata><path fill="rgb(192,192,192)" stroke="rgb(192,192,192)" stroke-width="1" opacity="1" d="M 142.5 50 L 140.5 53 L 142.5 50 Z " /><path fill="rgb(192,192,192)" stroke="rgb(192,192,192)" stroke-width="1" opacity="1" d="M 163.5 50 L 165.5 53 L 163.5 50 Z " /><path fill="rgb(192,192,192)" stroke="rgb(192,192,192)" stroke-width="1" opacity="1" d="M 137.5 56 L 135.5 59 L 137.5 56 Z " /><path fill="rgb(192,192,192)" stroke="rgb(192,192,192)" stroke-width="1" opacity="1" d="M 168.5 56 L 170.5 59 L 168.5 56 Z " /><path fill="rgb(192,192,192)" stroke="rgb(192,192,192)" stroke-width="1" opacity="1" d="M 132.5 62 L 130.5 65 L 132.5 62 Z " /><path fill="rgb(192,192,192)" stroke="rgb(192,192,192)" stroke-width="1" opacity="1" d="M 174.5 63 L 175.5 65 L 174.5 63 Z " /><path fill="rgb(192,192,192)" stroke="rgb(192,192,192)" stroke-width="1" opacity="1" d="M 127.5 68 L 125.5 71 L 127.5 68 Z " /><path fill="rgb(192,192,192)" stroke="rgb(192,192,192)" stroke-width="1" opacity="1" d="M 179.5 69 L 180.5 71 L 179.5 69 Z " /><path fill="rgb(192,192,192)" stroke="rgb(192,192,192)" stroke-width="1" opacity="1" d="M 147.5 70 L 146.5 72 L 147.5 70 Z " /><path fill="rgb(192,192,192)" stroke="rgb(192,192,192)" stroke-width="1" opacity="1" d="M 158.5 70 L 159.5 72 L 158.5 70 Z " /><path fill="rgb(192,192,192)" stroke="rgb(192,192,192)" stroke-width="1" opacity="1" d="M 121.5 75 L 120.5 77 L 121.5 75 Z " /><path fill="rgb(192,192,192)" stroke="rgb(192,192,192)" stroke-width="1" opacity="1" d="M 184.5 75 L 185.5 77 L 184.5 75 Z " /><path fill="rgb(192,192,192)" stroke="rgb(192,192,192)" stroke-width="1" opacity="1" d="M 155.5 84 L 156.5 86 L 155.5 84 Z " /><path fill="rgb(192,192,192)" stroke="rgb(192,192,192)" stroke-width="1" opacity="1" d="M 162.5 93 L 163.5 95 L 162.5 93 Z " /><path fill="rgb(192,192,192)" stroke="rgb(192,192,192)" stroke-width="1" opacity="1" d="M 140.5 97 L 139.5 99 L 140.5 97 Z " /><path fill="rgb(192,192,192)" stroke="rgb(192,192,192)" stroke-width="1" opacity="1" d="M 165.5 97 L 166.5 99 L 165.5 97 Z " /><path fill="rgb(192,192,192)" stroke="rgb(192,192,192)" stroke-width="1" opacity="1" d="M 137.5 101 L 136.5 103 L 137.5 101 Z " /><path fill="rgb(192,192,192)" stroke="rgb(192,192,192)" stroke-width="1" opacity="1" d="M 168.5 101 L 169.5 103 L 168.5 101 Z " /><path fill="rgb(192,192,192)" stroke="rgb(192,192,192)" stroke-width="1" opacity="1" d="M 134.5 105 L 133.5 107 L 134.5 105 Z " /><path fill="rgb(192,192,192)" stroke="rgb(192,192,192)" stroke-width="1" opacity="1" d="M 171.5 105 L 172.5 107 L 171.5 105 Z " /><path fill="rgb(192,192,192)" stroke="rgb(192,192,192)" stroke-width="1" opacity="1" d="M 131.5 109 L 130.5 111 L 131.5 109 Z " /><path fill="rgb(192,192,192)" stroke="rgb(192,192,192)" stroke-width="1" opacity="1" d="M 171.5 109 L 170.5 111 L 171.5 109 Z " /><path fill="rgb(192,192,192)" stroke="rgb(192,192,192)" stroke-width="1" opacity="1" d="M 174.5 112 L 173.5 114 L 174.5 112 Z " /><path fill="rgb(192,192,192)" stroke="rgb(192,192,192)" stroke-width="1" opacity="1" d="M 168.5 113 L 167.5 115 L 168.5 113 Z " /><path fill="rgb(192,192,192)" stroke="rgb(192,192,192)" stroke-width="1" opacity="1" d="M 178.5 114 L 179.5 116 L 178.5 114 Z " /><path fill="rgb(192,192,192)" stroke="rgb(192,192,192)" stroke-width="1" opacity="1" d="M 171.5 116 L 170.5 118 L 171.5 116 Z " /><path fill="rgb(192,192,192)" stroke="rgb(192,192,192)" stroke-width="1" opacity="1" d="M 165.5 117 L 164.5 119 L 165.5 117 Z " /><path fill="rgb(192,192,192)" stroke="rgb(192,192,192)" stroke-width="1" opacity="1" d="M 181.5 118 L 182.5 120 L 181.5 118 Z " /><path fill="rgb(192,192,192)" stroke="rgb(192,192,192)" stroke-width="1" opacity="1" d="M 168.5 120 L 167.5 122 L 168.5 120 Z " /><path fill="rgb(192,192,192)" stroke="rgb(192,192,192)" stroke-width="1" opacity="1" d="M 162.5 121 L 161.5 123 L 162.5 121 Z " /><path fill="rgb(192,192,192)" stroke="rgb(192,192,192)" stroke-width="1" opacity="1" d="M 184.5 122 L 185.5 124 L 184.5 122 Z " /><path fill="rgb(192,192,192)" stroke="rgb(192,192,192)" stroke-width="1" opacity="1" d="M 165.5 124 L 164.5 126 L 165.5 124 Z " /><path fill="rgb(192,192,192)" stroke="rgb(192,192,192)" stroke-width="1" opacity="1" d="M 159.5 125 L 158.5 127 L 159.5 125 Z " /><path fill="rgb(192,192,192)" stroke="rgb(192,192,192)" stroke-width="1" opacity="1" d="M 187.5 126 L 188.5 128 L 187.5 126 Z " /><path fill="rgb(192,192,192)" stroke="rgb(192,192,192)" stroke-width="1" opacity="1" d="M 162.5 128 L 161.5 130 L 162.5 128 Z " /><path fill="rgb(192,192,192)" stroke="rgb(192,192,192)" stroke-width="1" opacity="1" d="M 156.5 129 L 154.5 132 L 156.5 129 Z " /><path fill="rgb(192,192,192)" stroke="rgb(192,192,192)" stroke-width="1" opacity="1" d="M 115.5 130 L 114.5 132 L 115.5 130 Z " /><path fill="rgb(192,192,192)" stroke="rgb(192,192,192)" stroke-width="1" opacity="1" d="M 159.5 132 L 158.5 134 L 159.5 132 Z " /><path fill="rgb(192,192,192)" stroke="rgb(192,192,192)" stroke-width="1" opacity="1" d="M 112.5 134 L 111.5 136 L 112.5 134 Z " /><path fill="rgb(192,192,192)" stroke="rgb(192,192,192)" stroke-width="1" opacity="1" d="M 152.5 134 L 151.5 136 L 152.5 134 Z " /><path fill="rgb(192,192,192)" stroke="rgb(192,192,192)" stroke-width="1" opacity="1" d="M 156.5 136 L 156.5 139 Q 153.5 137.5 156.5 136 Z " /><path fill="rgb(192,192,192)" stroke="rgb(192,192,192)" stroke-width="1" opacity="1" d="M 109.5 138 L 108.5 140 L 109.5 138 Z " /><path fill="rgb(192,192,192)" stroke="rgb(192,192,192)" stroke-width="1" opacity="1" d="M 149.5 138 L 148.5 140 L 149.5 138 Z " /><path fill="rgb(192,192,192)" stroke="rgb(192,192,192)" stroke-width="1" opacity="1" d="M 158.5 141 L 159.5 143 L 158.5 141 Z " /><path fill="rgb(192,192,192)" stroke="rgb(192,192,192)" stroke-width="1" opacity="1" d="M 106.5 142 L 105.5 144 L 106.5 142 Z " /><path fill="rgb(192,192,192)" stroke="rgb(192,192,192)" stroke-width="1" opacity="1" d="M 146.5 142 L 145.5 144 L 146.5 142 Z " /><path fill="rgb(192,192,192)" stroke="rgb(192,192,192)" stroke-width="1" opacity="1" d="M 161.5 145 L 162.5 147 L 161.5 145 Z " /><path fill="rgb(192,192,192)" stroke="rgb(192,192,192)" stroke-width="1" opacity="1" d="M 143.5 146 L 142.5 148 L 143.5 146 Z " /><path fill="rgb(192,192,192)" stroke="rgb(192,192,192)" stroke-width="1" opacity="1" d="M 203.5 147 L 204.5 149 L 203.5 147 Z " /><path fill="rgb(192,192,192)" stroke="rgb(192,192,192)" stroke-width="1" opacity="1" d="M 164.5 149 L 165.5 151 L 164.5 149 Z " /><path fill="rgb(192,192,192)" stroke="rgb(192,192,192)" stroke-width="1" opacity="1" d="M 140.5 150 L 139.5 152 L 140.5 150 Z " /><path fill="rgb(192,192,192)" stroke="rgb(192,192,192)" stroke-width="1" opacity="1" d="M 206.5 151 L 207.5 153 L 206.5 151 Z " /><path fill="rgb(192,192,192)" stroke="rgb(192,192,192)" stroke-width="1" opacity="1" d="M 137.5 154 L 136.5 156 L 137.5 154 Z " /><path fill="rgb(192,192,192)" stroke="rgb(192,192,192)" stroke-width="1" opacity="1" d="M 209.5 155 L 210.5 157 L 209.5 155 Z " /><path fill="rgb(192,192,192)" stroke="rgb(192,192,192)" stroke-width="1" opacity="1" d="M 134.5 158 L 133.5 160 L 134.5 158 Z " /><path fill="rgb(192,192,192)" stroke="rgb(192,192,192)" stroke-width="1" opacity="1" d="M 93.5 159 L 92.5 161 L 93.5 159 Z " /><path fill="rgb(192,192,192)" stroke="rgb(192,192,192)" stroke-width="1" opacity="1" d="M 212.5 159 L 213.5 161 L 212.5 159 Z " /><path fill="rgb(192,192,192)" stroke="rgb(192,192,192)" stroke-width="1" opacity="1" d="M 131.5 162 L 130.5 164 L 131.5 162 Z " /><path fill="rgb(192,192,192)" stroke="rgb(192,192,192)" stroke-width="1" opacity="1" d="M 174.5 162 L 175.5 164 L 174.5 162 Z " /><path fill="rgb(192,192,192)" stroke="rgb(192,192,192)" stroke-width="1" opacity="1" d="M 90.5 163 L 89.5 165 L 90.5 163 Z " /><path fill="rgb(192,192,192)" stroke="rgb(192,192,192)" stroke-width="1" opacity="1" d="M 215.5 163 L 216.5 165 L 215.5 163 Z " /><path fill="rgb(192,192,192)" stroke="rgb(192,192,192)" stroke-width="1" opacity="1" d="M 128.5 166 L 127.5 168 L 128.5 166 Z " /><path fill="rgb(192,192,192)" stroke="rgb(192,192,192)" stroke-width="1" opacity="1" d="M 177.5 166 L 178.5 168 L 177.5 166 Z " /><path fill="rgb(192,192,192)" stroke="rgb(192,192,192)" stroke-width="1" opacity="1" d="M 87.5 167 L 86.5 169 L 87.5 167 Z " /><path fill="rgb(192,192,192)" stroke="rgb(192,192,192)" stroke-width="1" opacity="1" d="M 218.5 167 L 219.5 169 L 218.5 167 Z " /><path fill="rgb(192,192,192)" stroke="rgb(192,192,192)" stroke-width="1" opacity="1" d="M 125.5 170 L 124.5 172 L 125.5 170 Z " /><path fill="rgb(192,192,192)" stroke="rgb(192,192,192)" stroke-width="1" opacity="1" d="M 180.5 170 L 181.5 172 L 180.5 170 Z " /><path fill="rgb(192,192,192)" stroke="rgb(192,192,192)" stroke-width="1" opacity="1" d="M 84.5 171 L 83.5 173 L 84.5 171 Z " /><path fill="rgb(192,192,192)" stroke="rgb(192,192,192)" stroke-width="1" opacity="1" d="M 221.5 171 L 222.5 173 L 221.5 171 Z " /><path fill="rgb(192,192,192)" stroke="rgb(192,192,192)" stroke-width="1" opacity="1" d="M 122.5 174 L 121.5 176 L 122.5 174 Z " /><path fill="rgb(192,192,192)" stroke="rgb(192,192,192)" stroke-width="1" opacity="1" d="M 183.5 174 L 184.5 176 L 183.5 174 Z " /><path fill="rgb(192,192,192)" stroke="rgb(192,192,192)" stroke-width="1" opacity="1" d="M 81.5 175 L 80.5 177 L 81.5 175 Z " /><path fill="rgb(192,192,192)" stroke="rgb(192,192,192)" stroke-width="1" opacity="1" d="M 224.5 175 L 225.5 177 L 224.5 175 Z " /><path fill="rgb(192,192,192)" stroke="rgb(192,192,192)" stroke-width="1" opacity="1" d="M 186.5 178 L 187.5 180 L 186.5 178 Z " /><path fill="rgb(255,255,255)" stroke="rgb(255,255,255)" stroke-width="1" opacity="1" d="M 0 0 L 321 0 L 321 273 L 0 273 L 0 0 Z M 144 49 L 120 77 L 121 78 L 142 78 L 150 67 L 154 64 L 161 75 L 165 78 L 186 78 L 166 53 L 163 49 L 144 49 Z M 152 81 L 74 185 L 75 186 L 114 186 L 173 108 L 154 83 Q 155 80 152 81 Z M 176 111 L 155 138 L 190 184 L 193 186 L 232 186 L 177 113 Q 178 110 176 111 Z " /><path fill="rgb(87,87,87)" stroke="rgb(87,87,87)" stroke-width="1" opacity="1" d="M 143.5 49 L 163 49.5 L 143.5 50 L 143.5 49 Z " /><path fill="rgb(87,87,87)" stroke="rgb(87,87,87)" stroke-width="1" opacity="1" d="M 140.5 53 L 138.5 56 L 140.5 53 Z " /><path fill="rgb(87,87,87)" stroke="rgb(87,87,87)" stroke-width="1" opacity="1" d="M 165.5 53 L 167.5 56 L 165.5 53 Z " /><path fill="rgb(87,87,87)" stroke="rgb(87,87,87)" stroke-width="1" opacity="1" d="M 135.5 59 L 133.5 62 L 135.5 59 Z " /><path fill="rgb(87,87,87)" stroke="rgb(87,87,87)" stroke-width="1" opacity="1" d="M 170.5 59 L 173.5 63 L 170.5 59 Z " /><path fill="rgb(87,87,87)" stroke="rgb(87,87,87)" stroke-width="1" opacity="1" d="M 151.5 64 L 150.5 66 L 151.5 64 Z " /><path fill="rgb(87,87,87)" stroke="rgb(87,87,87)" stroke-width="1" opacity="1" d="M 154.5 64 L 155.5 66 L 154.5 64 Z " /><path fill="rgb(87,87,87)" stroke="rgb(87,87,87)" stroke-width="1" opacity="1" d="M 129.5 66 L 128.5 68 L 129.5 66 Z " /><path fill="rgb(87,87,87)" stroke="rgb(87,87,87)" stroke-width="1" opacity="1" d="M 176.5 66 L 178.5 69 L 176.5 66 Z " /><path fill="rgb(87,87,87)" stroke="rgb(87,87,87)" stroke-width="1" opacity="1" d="M 148.5 68 L 147.5 70 L 148.5 68 Z " /><path fill="rgb(87,87,87)" stroke="rgb(87,87,87)" stroke-width="1" opacity="1" d="M 157.5 68 L 158.5 70 L 157.5 68 Z " /><path fill="rgb(87,87,87)" stroke="rgb(87,87,87)" stroke-width="1" opacity="1" d="M 124.5 72 L 122.5 75 L 124.5 72 Z " /><path fill="rgb(87,87,87)" stroke="rgb(87,87,87)" stroke-width="1" opacity="1" d="M 181.5 72 L 183.5 75 L 181.5 72 Z " /><path fill="rgb(87,87,87)" stroke="rgb(87,87,87)" stroke-width="1" opacity="1" d="M 143.5 75 L 141.5 78 L 120 77.5 L 141.5 77 L 143.5 75 Z " /><path fill="rgb(87,87,87)" stroke="rgb(87,87,87)" stroke-width="1" opacity="1" d="M 162.5 75 L 164.5 77 L 186 77.5 L 164.5 78 L 162.5 75 Z " /><path fill="rgb(87,87,87)" stroke="rgb(87,87,87)" stroke-width="1" opacity="1" d="M 151.5 83 L 150.5 85 L 151.5 83 Z " /><path fill="rgb(87,87,87)" stroke="rgb(87,87,87)" stroke-width="1" opacity="1" d="M 148.5 87 L 147.5 89 L 148.5 87 Z " /><path fill="rgb(87,87,87)" stroke="rgb(87,87,87)" stroke-width="1" opacity="1" d="M 157.5 87 L 158.5 89 L 157.5 87 Z " /><path fill="rgb(87,87,87)" stroke="rgb(87,87,87)" stroke-width="1" opacity="1" d="M 145.5 91 L 144.5 93 L 145.5 91 Z " /><path fill="rgb(87,87,87)" stroke="rgb(87,87,87)" stroke-width="1" opacity="1" d="M 160.5 91 L 161.5 93 L 160.5 91 Z " /><path fill="rgb(87,87,87)" stroke="rgb(87,87,87)" stroke-width="1" opacity="1" d="M 142.5 95 L 141.5 97 L 142.5 95 Z " /><path fill="rgb(87,87,87)" stroke="rgb(87,87,87)" stroke-width="1" opacity="1" d="M 163.5 95 L 164.5 97 L 163.5 95 Z " /><path fill="rgb(87,87,87)" stroke="rgb(87,87,87)" stroke-width="1" opacity="1" d="M 139.5 99 L 138.5 101 L 139.5 99 Z " /><path fill="rgb(87,87,87)" stroke="rgb(87,87,87)" stroke-width="1" opacity="1" d="M 166.5 99 L 167.5 101 L 166.5 99 Z " /><path fill="rgb(87,87,87)" stroke="rgb(87,87,87)" stroke-width="1" opacity="1" d="M 136.5 103 L 135.5 105 L 136.5 103 Z " /><path fill="rgb(87,87,87)" stroke="rgb(87,87,87)" stroke-width="1" opacity="1" d="M 169.5 103 L 170.5 105 L 169.5 103 Z " /><path fill="rgb(87,87,87)" stroke="rgb(87,87,87)" stroke-width="1" opacity="1" d="M 172.5 107 L 171.5 109 L 172.5 107 Z " /><path fill="rgb(87,87,87)" stroke="rgb(87,87,87)" stroke-width="1" opacity="1" d="M 169.5 111 L 168.5 113 L 169.5 111 Z " /><path fill="rgb(87,87,87)" stroke="rgb(87,87,87)" stroke-width="1" opacity="1" d="M 129.5 112 L 128.5 114 L 129.5 112 Z " /><path fill="rgb(87,87,87)" stroke="rgb(87,87,87)" stroke-width="1" opacity="1" d="M 166.5 115 L 165.5 117 L 166.5 115 Z " /><path fill="rgb(87,87,87)" stroke="rgb(87,87,87)" stroke-width="1" opacity="1" d="M 126.5 116 L 125.5 118 L 126.5 116 Z " /><path fill="rgb(87,87,87)" stroke="rgb(87,87,87)" stroke-width="1" opacity="1" d="M 170.5 118 L 169.5 120 L 170.5 118 Z " /><path fill="rgb(87,87,87)" stroke="rgb(87,87,87)" stroke-width="1" opacity="1" d="M 163.5 119 L 161.5 122 L 163.5 119 Z " /><path fill="rgb(87,87,87)" stroke="rgb(87,87,87)" stroke-width="1" opacity="1" d="M 123.5 120 L 122.5 122 L 123.5 120 Z " /><path fill="rgb(87,87,87)" stroke="rgb(87,87,87)" stroke-width="1" opacity="1" d="M 167.5 122 L 166.5 124 L 167.5 122 Z " /><path fill="rgb(87,87,87)" stroke="rgb(87,87,87)" stroke-width="1" opacity="1" d="M 160.5 123 L 158.5 126 L 160.5 123 Z " /><path fill="rgb(87,87,87)" stroke="rgb(87,87,87)" stroke-width="1" opacity="1" d="M 120.5 124 L 119.5 126 L 120.5 124 Z " /><path fill="rgb(87,87,87)" stroke="rgb(87,87,87)" stroke-width="1" opacity="1" d="M 164.5 126 L 163.5 128 L 164.5 126 Z " /><path fill="rgb(87,87,87)" stroke="rgb(87,87,87)" stroke-width="1" opacity="1" d="M 157.5 127 L 155.5 130 L 157.5 127 Z " /><path fill="rgb(87,87,87)" stroke="rgb(87,87,87)" stroke-width="1" opacity="1" d="M 117.5 128 L 116.5 130 L 117.5 128 Z " /><path fill="rgb(87,87,87)" stroke="rgb(87,87,87)" stroke-width="1" opacity="1" d="M 189.5 129 L 190.5 131 L 189.5 129 Z " /><path fill="rgb(87,87,87)" stroke="rgb(87,87,87)" stroke-width="1" opacity="1" d="M 161.5 130 L 160.5 132 L 161.5 130 Z " /><path fill="rgb(87,87,87)" stroke="rgb(87,87,87)" stroke-width="1" opacity="1" d="M 114.5 132 L 113.5 134 L 114.5 132 Z " /><path fill="rgb(87,87,87)" stroke="rgb(87,87,87)" stroke-width="1" opacity="1" d="M 153.5 132 L 152.5 134 L 153.5 132 Z " /><path fill="rgb(87,87,87)" stroke="rgb(87,87,87)" stroke-width="1" opacity="1" d="M 192.5 133 L 193.5 135 L 192.5 133 Z " /><path fill="rgb(87,87,87)" stroke="rgb(87,87,87)" stroke-width="1" opacity="1" d="M 158.5 134 L 157.5 136 L 158.5 134 Z " /><path fill="rgb(87,87,87)" stroke="rgb(87,87,87)" stroke-width="1" opacity="1" d="M 111.5 136 L 110.5 138 L 111.5 136 Z " /><path fill="rgb(87,87,87)" stroke="rgb(87,87,87)" stroke-width="1" opacity="1" d="M 150.5 136 L 149.5 138 L 150.5 136 Z " /><path fill="rgb(87,87,87)" stroke="rgb(87,87,87)" stroke-width="1" opacity="1" d="M 195.5 137 L 196.5 139 L 195.5 137 Z " /><path fill="rgb(87,87,87)" stroke="rgb(87,87,87)" stroke-width="1" opacity="1" d="M 157.5 139 L 159.5 142 L 157.5 139 Z " /><path fill="rgb(87,87,87)" stroke="rgb(87,87,87)" stroke-width="1" opacity="1" d="M 147.5 140 L 146.5 142 L 147.5 140 Z " /><path fill="rgb(87,87,87)" stroke="rgb(87,87,87)" stroke-width="1" opacity="1" d="M 198.5 141 L 199.5 143 L 198.5 141 Z " /><path fill="rgb(87,87,87)" stroke="rgb(87,87,87)" stroke-width="1" opacity="1" d="M 160.5 143 L 162.5 146 L 160.5 143 Z " /><path fill="rgb(87,87,87)" stroke="rgb(87,87,87)" stroke-width="1" opacity="1" d="M 144.5 144 L 143.5 146 L 144.5 144 Z " /><path fill="rgb(87,87,87)" stroke="rgb(87,87,87)" stroke-width="1" opacity="1" d="M 104.5 145 L 103.5 147 L 104.5 145 Z " /><path fill="rgb(87,87,87)" stroke="rgb(87,87,87)" stroke-width="1" opacity="1" d="M 201.5 145 L 202.5 147 L 201.5 145 Z " /><path fill="rgb(87,87,87)" stroke="rgb(87,87,87)" stroke-width="1" opacity="1" d="M 163.5 147 L 165.5 150 L 163.5 147 Z " /><path fill="rgb(87,87,87)" stroke="rgb(87,87,87)" stroke-width="1" opacity="1" d="M 141.5 148 L 140.5 150 L 141.5 148 Z " /><path fill="rgb(87,87,87)" stroke="rgb(87,87,87)" stroke-width="1" opacity="1" d="M 101.5 149 L 100.5 151 L 101.5 149 Z " /><path fill="rgb(87,87,87)" stroke="rgb(87,87,87)" stroke-width="1" opacity="1" d="M 204.5 149 L 205.5 151 L 204.5 149 Z " /><path fill="rgb(87,87,87)" stroke="rgb(87,87,87)" stroke-width="1" opacity="1" d="M 166.5 151 L 168.5 154 L 166.5 151 Z " /><path fill="rgb(87,87,87)" stroke="rgb(87,87,87)" stroke-width="1" opacity="1" d="M 138.5 152 L 137.5 154 L 138.5 152 Z " /><path fill="rgb(87,87,87)" stroke="rgb(87,87,87)" stroke-width="1" opacity="1" d="M 98.5 153 L 97.5 155 L 98.5 153 Z " /><path fill="rgb(87,87,87)" stroke="rgb(87,87,87)" stroke-width="1" opacity="1" d="M 207.5 153 L 208.5 155 L 207.5 153 Z " /><path fill="rgb(87,87,87)" stroke="rgb(87,87,87)" stroke-width="1" opacity="1" d="M 169.5 155 L 171.5 158 L 169.5 155 Z " /><path fill="rgb(87,87,87)" stroke="rgb(87,87,87)" stroke-width="1" opacity="1" d="M 135.5 156 L 134.5 158 L 135.5 156 Z " /><path fill="rgb(87,87,87)" stroke="rgb(87,87,87)" stroke-width="1" opacity="1" d="M 95.5 157 L 94.5 159 L 95.5 157 Z " /><path fill="rgb(87,87,87)" stroke="rgb(87,87,87)" stroke-width="1" opacity="1" d="M 210.5 157 L 211.5 159 L 210.5 157 Z " /><path fill="rgb(87,87,87)" stroke="rgb(87,87,87)" stroke-width="1" opacity="1" d="M 172.5 159 L 174.5 162 L 172.5 159 Z " /><path fill="rgb(87,87,87)" stroke="rgb(87,87,87)" stroke-width="1" opacity="1" d="M 132.5 160 L 131.5 162 L 132.5 160 Z " /><path fill="rgb(87,87,87)" stroke="rgb(87,87,87)" stroke-width="1" opacity="1" d="M 92.5 161 L 91.5 163 L 92.5 161 Z " /><path fill="rgb(87,87,87)" stroke="rgb(87,87,87)" stroke-width="1" opacity="1" d="M 213.5 161 L 214.5 163 L 213.5 161 Z " /><path fill="rgb(87,87,87)" stroke="rgb(87,87,87)" stroke-width="1" opacity="1" d="M 129.5 164 L 128.5 166 L 129.5 164 Z " /><path fill="rgb(87,87,87)" stroke="rgb(87,87,87)" stroke-width="1" opacity="1" d="M 176.5 164 L 177.5 166 L 176.5 164 Z " /><path fill="rgb(87,87,87)" stroke="rgb(87,87,87)" stroke-width="1" opacity="1" d="M 89.5 165 L 88.5 167 L 89.5 165 Z " /><path fill="rgb(87,87,87)" stroke="rgb(87,87,87)" stroke-width="1" opacity="1" d="M 216.5 165 L 217.5 167 L 216.5 165 Z " /><path fill="rgb(87,87,87)" stroke="rgb(87,87,87)" stroke-width="1" opacity="1" d="M 126.5 168 L 125.5 170 L 126.5 168 Z " /><path fill="rgb(87,87,87)" stroke="rgb(87,87,87)" stroke-width="1" opacity="1" d="M 179.5 168 L 180.5 170 L 179.5 168 Z " /><path fill="rgb(87,87,87)" stroke="rgb(87,87,87)" stroke-width="1" opacity="1" d="M 86.5 169 L 85.5 171 L 86.5 169 Z " /><path fill="rgb(87,87,87)" stroke="rgb(87,87,87)" stroke-width="1" opacity="1" d="M 219.5 169 L 220.5 171 L 219.5 169 Z " /><path fill="rgb(87,87,87)" stroke="rgb(87,87,87)" stroke-width="1" opacity="1" d="M 123.5 172 L 122.5 174 L 123.5 172 Z " /><path fill="rgb(87,87,87)" stroke="rgb(87,87,87)" stroke-width="1" opacity="1" d="M 182.5 172 L 183.5 174 L 182.5 172 Z " /><path fill="rgb(87,87,87)" stroke="rgb(87,87,87)" stroke-width="1" opacity="1" d="M 120.5 176 L 119.5 178 L 120.5 176 Z " /><path fill="rgb(87,87,87)" stroke="rgb(87,87,87)" stroke-width="1" opacity="1" d="M 185.5 176 L 186.5 178 L 185.5 176 Z " /><path fill="rgb(87,87,87)" stroke="rgb(87,87,87)" stroke-width="1" opacity="1" d="M 79.5 178 L 78.5 180 L 79.5 178 Z " /><path fill="rgb(87,87,87)" stroke="rgb(87,87,87)" stroke-width="1" opacity="1" d="M 226.5 178 L 227.5 180 L 226.5 178 Z " /><path fill="rgb(87,87,87)" stroke="rgb(87,87,87)" stroke-width="1" opacity="1" d="M 117.5 180 L 116.5 182 L 117.5 180 Z " /><path fill="rgb(87,87,87)" stroke="rgb(87,87,87)" stroke-width="1" opacity="1" d="M 188.5 180 L 189.5 182 L 188.5 180 Z " /><path fill="rgb(87,87,87)" stroke="rgb(87,87,87)" stroke-width="1" opacity="1" d="M 76.5 182 L 75.5 184 L 76.5 182 Z " /><path fill="rgb(87,87,87)" stroke="rgb(87,87,87)" stroke-width="1" opacity="1" d="M 229.5 182 L 230.5 184 L 229.5 182 Z " /><path fill="rgb(87,87,87)" stroke="rgb(87,87,87)" stroke-width="1" opacity="1" d="M 114.5 184 L 113.5 186 L 74 185.5 L 113.5 185 L 114.5 184 Z " /><path fill="rgb(87,87,87)" stroke="rgb(87,87,87)" stroke-width="1" opacity="1" d="M 191.5 184 L 192.5 185 L 232 185.5 L 192.5 186 L 191.5 184 Z " /><path fill="rgb(2,2,2)" stroke="rgb(2,2,2)" stroke-width="1" opacity="1" d="M 143.5 50 L 162.5 50 L 165 52.5 L 185 76.5 L 164.5 77 L 153.5 63 L 150 65.5 L 141.5 77 L 121 76.5 L 143.5 50 Z " /><path fill="rgb(2,2,2)" stroke="rgb(2,2,2)" stroke-width="1" opacity="1" d="M 152 82 Q 154.7 80.9 154 83.5 L 172 107.5 L 113.5 185 L 75 184.5 L 152 82 Z " /><path fill="rgb(2,2,2)" stroke="rgb(2,2,2)" stroke-width="1" opacity="1" d="M 175.5 112 Q 177.8 111.3 177 113.5 L 231 184.5 L 192.5 185 L 156 137.5 L 175.5 112 Z " /></svg>